<?xml version="1.0" encoding="UTF-8" standalone="no"?>
<!-- Generator: Adobe Illustrator 23.1.1, SVG Export Plug-In . SVG Version: 6.00 Build 0)  -->

<svg
   version="1.1"
   id="Layer_1"
   width="1000"
   height="204.42838"
   x="0px"
   y="0px"
   viewBox="12 25 2150 301.77522"
   xml:space="preserve"
   xmlns:xlink="http://www.w3.org/1999/xlink"
   xmlns="http://www.w3.org/2000/svg"
   xmlns:svg="http://www.w3.org/2000/svg"><defs
   id="defs94"><linearGradient
     id="linearGradient894"
     gradientUnits="userSpaceOnUse"
     x1="86.940002"
     y1="21.51"
     x2="49.993145"
     y2="110.7076"
     gradientTransform="matrix(1,0,0,-1,0,117.89)"><stop
       offset="0"
       style="stop-color:#FFFFFF"
       id="stop6-4" /><stop
       offset="1"
       style="stop-color:#404040"
       id="stop8-3" /></linearGradient><linearGradient
     id="SVGID_2_-2"
     gradientUnits="userSpaceOnUse"
     x1="74.451477"
     y1="27.551378"
     x2="119.04711"
     y2="72.147011"
     gradientTransform="matrix(1,0,0,-1,0,117.89)"><stop
       offset="0"
       style="stop-color:#FDB913"
       id="stop13-3" /><stop
       offset="1"
       style="stop-color:#F26522"
       id="stop15-1" /></linearGradient><linearGradient
     id="SVGID_3_-9"
     gradientUnits="userSpaceOnUse"
     x1="79.555374"
     y1="517.08539"
     x2="130.8632"
     y2="517.08539"
     gradientTransform="translate(0,-476.2904)"><stop
       offset="0"
       style="stop-color:#FDB913"
       id="stop20-6" /><stop
       offset="1"
       style="stop-color:#F26522"
       id="stop22-6" /></linearGradient><radialGradient
     id="SVGID_4_-1"
     cx="32.04192"
     cy="77.275322"
     r="29.2906"
     gradientTransform="matrix(-3.2347825e-7,2.5659679,3.5071405,7.1134293e-8,-223.99537,-57.088544)"
     gradientUnits="userSpaceOnUse"
     fx="32.04192"
     fy="77.275322"><stop
       offset="0"
       style="stop-color:#bad431;stop-opacity:1"
       id="stop27-0" /><stop
       offset="1"
       style="stop-color:#2a8e37;stop-opacity:1"
       id="stop29-1" /></radialGradient><linearGradient
     id="linearGradient907"
     gradientUnits="userSpaceOnUse"
     x1="-44.424374"
     y1="40.040001"
     x2="49.880001"
     y2="40.040001"
     gradientTransform="matrix(1,0,0,-1,0,117.89)"><stop
       offset="0"
       style="stop-color:#bad431;stop-opacity:1"
       id="stop34-0" /><stop
       offset="1"
       style="stop-color:#2a8e37;stop-opacity:1"
       id="stop36-5" /></linearGradient><linearGradient
     xlink:href="#SVGID_1_"
     id="linearGradient915"
     gradientUnits="userSpaceOnUse"
     gradientTransform="matrix(1,0,0,-1,0,117.89)"
     x1="86.940002"
     y1="21.51"
     x2="49.993145"
     y2="110.7076" /><linearGradient
     xlink:href="#SVGID_5_"
     id="linearGradient917"
     gradientUnits="userSpaceOnUse"
     gradientTransform="matrix(1,0,0,-1,0,117.89)"
     x1="-44.424374"
     y1="40.040001"
     x2="49.880001"
     y2="40.040001" /></defs>
<style
   type="text/css"
   id="style2">
	.st0{display:none;fill:#DEDFE0;}
	.st1{fill:url(#SVGID_1_);}
	.st2{fill:url(#SVGID_2_);}
	.st3{fill:url(#SVGID_3_);}
	.st4{fill:url(#SVGID_4_);}
	.st5{opacity:0.25;fill:url(#SVGID_5_);enable-background:new    ;}
	.st6{fill:#111617;}
	.st7{fill:#3AB54A;}
</style>

<linearGradient
   id="SVGID_1_"
   gradientUnits="userSpaceOnUse"
   x1="86.940002"
   y1="21.51"
   x2="49.993145"
   y2="110.7076"
   gradientTransform="matrix(1,0,0,-1,0,117.89)">
	<stop
   offset="0"
   style="stop-color:#FFFFFF"
   id="stop6" />
	<stop
   offset="1"
   style="stop-color:#404040"
   id="stop8" />
</linearGradient>

<linearGradient
   id="SVGID_2_"
   gradientUnits="userSpaceOnUse"
   x1="80.241699"
   y1="33.341599"
   x2="122.90726"
   y2="76.007156"
   gradientTransform="matrix(1,0,0,-1,0,117.89)">
	<stop
   offset="0"
   style="stop-color:#FDB913"
   id="stop13" />
	<stop
   offset="1"
   style="stop-color:#F26522"
   id="stop15" />
</linearGradient>

<linearGradient
   id="SVGID_3_"
   gradientUnits="userSpaceOnUse"
   x1="86.940002"
   y1="517.08539"
   x2="138.08"
   y2="517.08539"
   gradientTransform="translate(0,-476.2904)">
	<stop
   offset="0"
   style="stop-color:#FDB913"
   id="stop20" />
	<stop
   offset="1"
   style="stop-color:#F26522"
   id="stop22" />
</linearGradient>

<radialGradient
   id="SVGID_4_"
   cx="32.04192"
   cy="77.275322"
   r="29.2906"
   gradientTransform="matrix(-3.3986155e-7,2.5315885,3.6847677,7.0181218e-8,-237.72157,-55.98696)"
   gradientUnits="userSpaceOnUse"
   fx="32.04192"
   fy="77.275322">
	<stop
   offset="0"
   style="stop-color:#bad431;stop-opacity:1"
   id="stop27" />
	<stop
   offset="1"
   style="stop-color:#2a8e37;stop-opacity:1"
   id="stop29" />
</radialGradient>

<linearGradient
   id="SVGID_5_"
   gradientUnits="userSpaceOnUse"
   x1="-44.424374"
   y1="40.040001"
   x2="49.880001"
   y2="40.040001"
   gradientTransform="matrix(1,0,0,-1,0,117.89)">
	<stop
   offset="0"
   style="stop-color:#bad431;stop-opacity:1"
   id="stop34" />
	<stop
   offset="1"
   style="stop-color:#2a8e37;stop-opacity:1"
   id="stop36" />
</linearGradient>

<g
   id="g69"
   transform="matrix(5.0490638,0,0,5.0490638,-52.779489,-97.39297)">
	<path
   class="st6"
   d="M 138.08,57.72 V 23.14 H 144.9 V 57.71 H 138.08 Z"
   id="path41" />
	<path
   class="st6"
   d="M 162.94,57.72 V 56.04 C 162.51,56.33 160.01,58.25 156.27,58.25 151.57,58.25 148.64,55.13 148.64,50.67 148.64,42.27 158.91,42.13 161.79,42.13 H 162.46 C 162.46,40.69 162.41,40.02 161.74,39.34 161.21,38.81 160.16,38.38 158.38,38.38 155.26,38.38 152.43,39.92 152.09,40.11 L 149.93,35.98 C 150.27,35.69 153.48,33.44 158.91,33.44 160.93,33.44 164.33,33.78 166.64,36.08 168.61,38.05 168.56,40.5 168.56,43.57 V 57.73 Z M 162.46,46.53 C 162.03,46.53 161.45,46.53 161.45,46.53 157.27,46.53 154.3,47.25 154.3,50.23 154.3,52.68 156.36,53.35 157.95,53.35 160.59,53.35 162.17,52.06 162.46,51.91 Z"
   id="path43" />
	<path
   class="st6"
   d="M 186.56,38.95 C 186.37,38.9 185.46,38.81 185.12,38.81 181.18,38.81 179.22,41.16 178.5,42.22 V 57.73 H 172.02 V 34.1 H 177.54 V 37.08 C 177.73,36.74 180.66,33.43 185.36,33.43 187.04,33.43 187.9,34.01 188.05,34.05 Z"
   id="path45" />
	<path
   class="st6"
   d="M 204.56,57.72 V 45.28 C 204.56,42.21 204.42,40.67 203.55,39.81 203.26,39.52 202.54,38.95 201.01,38.95 198.95,38.95 197.03,40.15 196.64,40.44 V 57.72 H 190.16 V 34.1 H 195.68 V 35.88 C 196.06,35.59 198.99,33.43 202.35,33.43 204.85,33.43 206.96,34.2 208.49,35.73 211.18,38.42 211.03,41.92 211.03,45 V 57.72 C 211.03,57.72 204.56,57.72 204.56,57.72 Z"
   id="path47" />
	<path
   class="st6"
   d="M 228.6,38.95 C 228.41,38.9 227.49,38.81 227.16,38.81 223.22,38.81 221.26,41.16 220.54,42.22 V 57.73 H 214.06 V 34.1 H 219.58 V 37.08 C 219.77,36.74 222.7,33.43 227.4,33.43 229.08,33.43 229.94,34.01 230.09,34.05 Z"
   id="path49" />
	<path
   class="st6"
   d="M 241.85,58.39 C 234.89,58.39 230.09,53.3 230.09,46.05 230.09,38.71 235.13,33.43 242.33,33.43 249.29,33.43 254.14,38.57 254.14,45.67 254.14,53.2 249.15,58.39 241.85,58.39 Z M 237.58,31.55 235.61,28.04 246.22,22.14 248.67,26.99 Z M 242.04,38.75 C 238.73,38.75 236.57,41.58 236.57,45.81 236.57,50.13 238.92,53.01 242.28,53.01 245.64,53.01 247.66,50.23 247.66,45.95 247.66,41.63 245.36,38.75 242.04,38.75 Z"
   id="path51" />
	<path
   class="st6"
   d="M 273.15,57.72 V 56.28 C 272.91,56.47 270.75,58.34 266.81,58.34 260.38,58.34 256.2,53.35 256.2,46.24 256.2,38.56 261.58,33.42 267.58,33.42 270.22,33.42 272.04,34.24 272.33,34.33 V 22.96 H 278.81 V 57.72 C 278.81,57.72 273.15,57.72 273.15,57.72 Z M 272.33,39.71 C 272.14,39.61 270.6,38.75 268.73,38.75 265.32,38.75 262.73,41.2 262.73,46.05 262.73,50.61 265.32,53.06 268.35,53.06 270.41,53.06 272.19,51.95 272.33,51.81 Z"
   id="path53" />
	<path
   class="st6"
   d="M 293.78,57.72 V 23.14 H 315.37 V 29.02 L 300.97,29.05 V 37.08 L 315.37,37.1 V 42.85 L 300.97,42.89 V 51.7 L 315.37,51.69 V 57.69 Z M 299.84,20.76 297.73,16.98 309.08,10.6 311.7,15.83 Z"
   id="path55" />
	<path
   class="st6"
   d="M 322.12,31.17 C 320.06,31.17 318.42,29.54 318.42,27.47 318.42,25.41 320.05,23.77 322.12,23.77 324.18,23.77 325.82,25.4 325.82,27.47 325.81,29.54 324.18,31.17 322.12,31.17 Z M 318.9,57.72 V 34.1 H 325.38 V 57.72 Z"
   id="path57" />
	<path
   class="st6"
   d="M 344.15,38.95 C 343.96,38.9 343.04,38.81 342.71,38.81 338.77,38.81 336.81,41.16 336.09,42.22 V 57.73 H 329.61 V 34.1 H 335.13 V 37.08 C 335.32,36.74 338.25,33.43 342.95,33.43 344.63,33.43 345.49,34.01 345.64,34.05 Z"
   id="path59" />
	<path
   class="st6"
   d="M 367.67,48.02 H 352.12 C 352.02,49.75 353.46,53.35 358.17,53.35 361.15,53.35 363.45,52.15 364.46,51.67 L 366.57,55.8 C 366.43,55.94 362.83,58.39 357.59,58.39 349.91,58.39 345.83,52.92 345.83,46.05 345.83,38.8 350.44,33.43 357.16,33.43 364.07,33.43 367.77,38.33 367.77,46.01 367.76,47.01 367.67,47.68 367.67,48.02 Z M 357.3,38.23 C 354.37,38.23 352.55,40.44 352.07,43.37 H 361.77 C 361.76,42.07 361.28,38.23 357.3,38.23 Z"
   id="path61" />
	<path
   class="st6"
   d="M 384.08,57.72 V 56.04 C 383.65,56.33 381.15,58.25 377.41,58.25 372.71,58.25 369.78,55.13 369.78,50.67 369.78,42.27 380.05,42.13 382.93,42.13 H 383.6 C 383.6,40.69 383.55,40.02 382.88,39.34 382.35,38.81 381.3,38.38 379.52,38.38 376.4,38.38 373.57,39.92 373.23,40.11 L 371.07,35.98 C 371.41,35.69 374.62,33.44 380.05,33.44 382.07,33.44 385.47,33.78 387.78,36.08 389.75,38.05 389.7,40.5 389.7,43.57 V 57.73 Z M 383.6,46.53 C 383.17,46.53 382.59,46.53 382.59,46.53 378.41,46.53 375.44,47.25 375.44,50.23 375.44,52.68 377.5,53.35 379.09,53.35 381.73,53.35 383.31,52.06 383.6,51.91 Z"
   id="path63" />
	<path
   class="st6"
   d="M 407.65,57.72 V 45.28 C 407.65,42.21 407.51,40.67 406.64,39.81 406.35,39.52 405.63,38.95 404.1,38.95 402.04,38.95 400.12,40.15 399.73,40.44 V 57.72 H 393.25 V 34.1 H 398.77 V 35.88 C 399.15,35.59 402.08,33.43 405.44,33.43 407.94,33.43 410.05,34.2 411.58,35.73 414.27,38.42 414.13,41.92 414.13,45 V 57.72 C 414.13,57.72 407.65,57.72 407.65,57.72 Z"
   id="path65" />
	<path
   class="st6"
   d="M 432.18,57.72 V 45.28 C 432.18,42.21 432.04,40.67 431.17,39.81 430.88,39.52 430.16,38.95 428.63,38.95 426.57,38.95 424.65,40.15 424.26,40.44 V 57.72 H 417.78 V 34.1 H 423.3 V 35.88 C 423.68,35.59 426.61,33.43 429.97,33.43 432.47,33.43 434.58,34.2 436.11,35.73 438.8,38.42 438.65,41.92 438.65,45 V 57.72 C 438.65,57.72 432.18,57.72 432.18,57.72 Z"
   id="path67" />
</g>
<g
   id="g89"
   transform="matrix(5.0490638,0,0,5.0490638,-52.779489,-97.39297)">
	<path
   class="st7"
   d="M 138.08,96.98 V 62.08 H 144.9 V 96.98 Z"
   id="path71" />
	<path
   class="st7"
   d="M 163.47,78.21 C 163.28,78.16 162.37,78.07 162.03,78.07 158.09,78.07 156.13,80.42 155.41,81.48 V 96.99 H 148.93 V 73.36 H 154.45 V 76.34 C 154.64,76 157.57,72.69 162.27,72.69 163.95,72.69 164.81,73.27 164.96,73.31 Z"
   id="path73" />
	<path
   class="st7"
   d="M 170.28,70.43 C 168.22,70.43 166.58,68.8 166.58,66.73 166.58,64.67 168.21,63.03 170.28,63.03 172.34,63.03 173.98,64.66 173.98,66.73 173.98,68.8 172.35,70.43 170.28,70.43 Z M 167.07,96.98 V 73.36 H 173.55 V 96.98 Z"
   id="path75" />
	<path
   class="st7"
   d="M 185.31,97.65 C 179.93,97.65 176.43,95.2 176.14,94.96 L 178.35,90.83 C 178.83,91.07 181.52,92.75 184.49,92.75 187.37,92.75 188.14,91.6 188.14,90.45 188.14,88.91 186.84,88.58 183.05,86.99 180.99,86.12 177.19,84.64 177.19,80.12 177.19,75.61 180.89,72.68 186.45,72.68 191.59,72.68 194.28,74.79 194.28,74.79 L 192.17,78.77 C 191.93,78.63 189.19,77.23 186.79,77.23 184.39,77.23 183.62,78.43 183.62,79.39 183.62,80.97 185.25,81.41 187.89,82.46 191.11,83.76 194.66,85.2 194.66,90 194.67,94.72 191.07,97.65 185.31,97.65 Z"
   id="path77" />
	<path
   class="st7"
   d="M 212.81,96.98 V 84.54 C 212.81,81.47 212.67,79.93 211.8,79.07 211.51,78.78 210.79,78.21 209.26,78.21 207.2,78.21 205.28,79.41 204.89,79.7 V 96.98 H 198.41 V 62.22 H 204.89 V 74.46 C 205.23,74.27 207.68,72.68 210.6,72.68 213.1,72.68 215.21,73.45 216.74,74.98 219.38,77.62 219.28,81.17 219.28,84.25 V 96.97 H 212.81 Z"
   id="path79" />
	<path
   class="st7"
   d="M 251.53,96.98 247.37,87.51 C 245.42,83.01 244.19,83.17 241.41,83.17 H 240.59 V 96.98 H 233.45 V 62.08 H 242.23 C 246.8,62.08 250.81,61.92 253.94,65.12 255.53,66.74 256.71,69.04 256.71,72.08 256.71,76.37 254.3,80.19 249.16,80.97 252.81,81.34 254.29,85.78 255.48,88.45 L 259.23,96.98 C 259.23,96.98 251.53,96.98 251.53,96.98 Z M 248.39,69.14 C 247.11,67.83 245.36,67.88 242.69,67.88 H 240.58 V 77.45 H 243.46 C 245.87,77.45 247.06,77.08 248.13,75.99 248.95,75.15 249.46,73.64 249.46,72.43 249.47,71.03 249.01,69.77 248.39,69.14 Z"
   id="path81" />
	<path
   class="st7"
   d="M 274.33,96.98 V 95.3 C 273.9,95.59 271.4,97.51 267.66,97.51 262.95,97.51 260.03,94.39 260.03,89.93 260.03,81.53 270.3,81.39 273.18,81.39 H 273.85 C 273.85,79.95 273.8,79.28 273.13,78.6 272.6,78.07 271.55,77.64 269.77,77.64 266.65,77.64 263.82,79.18 263.48,79.37 L 261.32,75.24 C 261.66,74.95 264.87,72.7 270.3,72.7 272.32,72.7 275.72,73.04 278.03,75.34 280,77.31 279.95,79.76 279.95,82.83 V 96.99 H 274.33 Z M 273.85,85.79 C 273.42,85.79 272.84,85.79 272.84,85.79 268.66,85.79 265.69,86.51 265.69,89.49 265.69,91.94 267.75,92.61 269.34,92.61 271.98,92.61 273.56,91.32 273.85,91.17 Z"
   id="path83" />
	<path
   class="st7"
   d="M 286.66,70.43 C 284.6,70.43 282.96,68.8 282.96,66.73 282.96,64.67 284.59,63.03 286.66,63.03 288.72,63.03 290.36,64.66 290.36,66.73 290.36,68.8 288.73,70.43 286.66,70.43 Z M 283.45,96.98 V 73.36 H 289.93 V 96.98 Z"
   id="path85" />
	<path
   class="st7"
   d="M 294.15,96.98 V 62.22 H 300.63 V 96.98 C 300.63,96.98 294.15,96.98 294.15,96.98 Z"
   id="path87" />
</g>
<g
   id="g929"
   transform="matrix(0.999,0,0,0.999,0.01199996,0.20214209)"
   style="display:inline"><polygon
     class="st1"
     points="49.88,59.32 49.88,22.27 86.94,59.32 86.94,96.38 "
     id="polygon11-0"
     style="fill:url(#linearGradient915)"
     transform="matrix(5.0541179,0,0,5.0541179,-52.844333,-97.692779)" /><polygon
     class="st2"
     points="86.94,96.38 86.94,59.32 123.99,59.32 "
     id="polygon18-5"
     style="fill:url(#SVGID_2_-2)"
     transform="matrix(5.0541179,0,0,5.0541179,-52.844333,-97.692779)" /><polygon
     class="st3"
     points="86.94,22.27 86.94,59.32 123.99,59.32 "
     id="polygon25-0"
     style="fill:url(#SVGID_3_-9)"
     transform="matrix(5.0541179,0,0,5.0541179,-52.844333,-97.692779)" /><polygon
     class="st4"
     points="12.83,59.32 49.88,22.27 49.88,96.37 "
     id="polygon32-4"
     style="fill:url(#SVGID_4_-1)"
     transform="matrix(5.0541179,0,0,5.0541179,-52.844333,-97.692779)" /><polygon
     class="st5"
     points="49.88,59.32 12.83,59.32 49.88,96.38 "
     id="polygon39-7"
     style="opacity:0.35;fill:url(#linearGradient917);enable-background:new"
     transform="matrix(5.0541179,0,0,5.0541179,-52.844333,-97.692779)" /></g></svg>
